# xmcd CD database file
#
# Track frame offsets:
#	150
#	16196
#	27024
#	42655
#	59396
#	75693
#
# Disc length: 1219 seconds
#
# Revision: 0
# Processed by: cddbd v1.5.2PL0 Copyright (c) Steve Scherf et al.
# Submitted via: CDex 1.70beta2
#
DISCID=4104c106
DTITLE=SPEEDPIG - HOG ROAST IN HELL E.P
DYEAR=2011
DGENRE=Stoner
TTITLE0=KILL YOU TO DEATH
TTITLE1=BLACK ACID
TTITLE2=RISE UP AND DIE
TTITLE3=TSUNAMI
TTITLE4=FULL HOG
TTITLE5=S.M.G
EXTD=YEAR: 2011
EXTT0=
EXTT1=
EXTT2=
EXTT3=
EXTT4=
EXTT5=
PLAYORDER=
